<?xml version="1.0" encoding="UTF-8" standalone="no"?>
<!DOCTYPE svg PUBLIC "-//W3C//DTD SVG 1.1//EN" "http://www.w3.org/Graphics/SVG/1.1/DTD/svg11.dtd">
<svg width="100%" height="100%" viewBox="0 0 957 496" version="1.1" xmlns="http://www.w3.org/2000/svg" xmlns:xlink="http://www.w3.org/1999/xlink" xml:space="preserve" xmlns:serif="http://www.serif.com/" style="fill-rule:evenodd;clip-rule:evenodd;stroke-linejoin:round;stroke-miterlimit:2;">
    <g transform="matrix(1,0,0,1,0,-1000)">
        <g transform="matrix(1,0,0,1,0,1994.94)">
            <g id="fs_logo_wiwi_blau" transform="matrix(1.00104,0,0,0.829318,0,-994.935)">
                <rect x="0" y="0" width="955.211" height="597.238" style="fill:none;"/>
                <g transform="matrix(0.998966,0,0,1.20581,0.493989,-0.343827)">
                    <path d="M479.111,0.762C480.055,2.468 480.615,4.617 482,5.812C493.051,15.338 495.751,27.789 495.131,41.576C494.962,45.322 495.884,49.171 495.364,52.84C493.012,69.434 499.304,81.753 511.501,93.024C525.466,105.927 537.549,120.844 550.886,134.462C553.475,137.106 558.096,139.261 561.717,139.169C623.16,137.606 684.592,135.652 746.025,133.794C747.991,133.734 749.964,133.787 752.019,133.787C753.746,140.873 750.946,143.088 744.631,143.555C684.085,148.044 623.559,152.782 563.013,157.252C558.057,157.619 555.895,158.85 556.116,164.265C556.528,174.227 556.235,184.217 556.235,195.167C624.739,194.266 692.356,193.377 759.767,192.491C764.875,172.697 769.842,153.445 774.953,133.64C792.114,136.787 807.582,139.632 823.056,142.458C845.006,146.467 866.993,150.294 888.88,154.622C892.79,155.395 896.847,157.584 899.893,160.209C917.189,175.099 934.184,190.339 951.34,205.391C952.363,206.289 953.909,206.592 955.211,207.172L955.211,341.262C924.833,341.34 894.451,341.694 864.079,341.236C858.677,341.154 853.183,338.004 847.974,335.72C826.627,326.368 805.409,316.719 784.044,307.408C780.706,305.955 776.853,304.993 773.234,304.985C702.93,304.845 632.627,304.88 562.323,304.896C560.373,304.898 558.425,305.116 556.153,305.252L556.153,327.515C560.186,327.803 563.828,328.061 567.856,328.348L567.856,343.415L423.699,343.415C423.482,346.72 423.369,349.364 423.128,351.995C419.759,388.698 416.438,425.403 412.897,462.087C412.517,466.006 411.107,469.907 409.687,473.631C405.568,484.433 395.752,486.252 389.627,476.248C382.243,464.189 376.484,451.036 370.99,437.949C364.451,422.373 358.94,406.364 352.985,390.544C352.054,390.666 351.123,390.788 350.192,390.909C348.908,397.31 347.915,403.78 346.289,410.092C340.363,433.121 334.614,456.212 327.853,479C326.43,483.791 321.474,490.204 317.305,490.913C310.362,492.091 305.33,485.324 303.658,479.039C299.942,465.058 296.891,450.828 294.745,436.525C291.398,414.218 289.222,391.739 286.13,369.391C285.139,362.238 289.614,360.962 294.537,359.65C300.207,358.14 302.773,361.934 303.374,366.351C305.496,381.936 306.855,397.626 308.95,413.218C310.443,424.338 312.592,435.372 314.614,446.416C314.941,448.193 316.149,449.806 316.948,451.497C317.688,451.524 318.426,451.553 319.164,451.58C322.241,438.08 325.826,424.672 328.267,411.06C331.225,394.546 332.782,377.78 335.914,361.306C336.778,356.76 341.089,352.868 343.819,348.677C348.236,351.597 354.379,353.518 356.749,357.622C364.103,370.345 370.749,383.602 376.299,397.212C382.051,411.319 386.157,426.096 391.094,440.542C391.902,442.905 393.29,445.072 394.411,447.329L397.462,446.981C400.307,413.074 403.151,379.166 406.096,344.045L337.786,344.045L337.786,329.519L369.289,329.519L369.289,212.347C281.797,215.057 194.706,217.756 107.307,220.465L107.307,322.505C112.975,320.939 118.193,319.669 123.302,318.054C138.597,313.22 153.749,307.904 169.161,303.487C176.001,301.528 177.874,297.95 177.952,291.202C178.167,272.421 179.132,253.647 179.796,235.005C189.244,232.033 191.215,233.05 190.992,242.385C190.638,257.164 189.538,271.927 188.735,286.694C188.586,289.426 188.354,292.151 188.087,295.899C242.819,297.778 297.073,299.642 351.625,301.516L351.625,309.909C345.234,309.909 339.058,309.941 332.881,309.903C286.189,309.617 239.48,308.571 192.814,309.518C180.259,309.772 167.742,315.798 155.359,319.656C138.859,324.797 122.531,330.488 106.064,335.736C103.524,336.547 100.635,336.448 97.906,336.46C65.269,336.589 32.634,336.659 0,336.744L0,213.198C12.948,195.717 25.896,178.238 38.845,160.757C40.336,158.744 42.345,156.932 43.225,154.68C47.754,143.087 56.663,142.971 67.009,144.444C92.335,148.055 117.656,152.53 143.132,154.026C170.893,155.655 198.826,154.474 226.681,154.24C266.582,153.907 306.483,153.401 346.379,152.75C351.35,152.669 353.065,154.652 353.038,159.948C287.224,161.637 221.447,163.327 154.046,165.058C162.546,178.82 170.035,191.397 178.145,203.56C179.313,205.313 183.502,205.736 186.253,205.641C219.346,204.498 252.429,203.065 285.519,201.861C310.344,200.958 335.176,200.298 360.003,199.475C362.967,199.376 365.92,198.931 369.72,198.565C369.72,183.394 369.886,168.64 369.625,153.892C369.541,149.149 370.838,146.357 375.081,143.589C386.417,136.192 397.72,128.746 408.994,121.256C426.319,109.747 443.574,98.133 460.767,86.428C463.294,84.708 465.449,80.57 465.556,77.479C466.053,62.934 466.198,48.346 465.613,33.809C465.285,25.626 467.165,18.639 471.674,11.97C474.027,8.488 475.652,4.514 477.605,0.762L479.111,0.762ZM898.598,178.191C888.005,192.099 877.708,205.311 867.842,218.834C865.814,221.614 864.391,225.56 864.383,228.972C864.334,248.01 864.894,267.051 865.074,286.091C865.212,301.033 865.101,315.979 865.101,330.996L942.204,330.996C942.755,329.643 943.096,329.197 943.097,328.751C943.17,292.905 943.245,257.059 943.173,221.213C943.17,219.426 942.351,217.09 941.075,215.937C927.172,203.39 913.099,191.027 898.598,178.191ZM486.513,294.562C479.809,294.562 473.816,294.193 467.919,294.781C466.092,294.963 463.156,297.671 463.068,299.346C462.591,308.519 462.841,317.727 462.841,327.419L486.513,327.419L486.513,294.562ZM776.205,193.077C795.208,196.255 813.031,198.925 830.71,202.343C837.827,203.719 842.66,202.582 846.176,195.865C848.122,192.148 851.294,189.081 853.852,185.674C860.965,176.21 868.044,166.72 875.573,156.654C846.386,153.383 818.519,150.188 790.621,147.3C788.903,147.122 785.628,149.043 785.286,150.505C782.043,164.35 779.281,178.309 776.205,193.077ZM168.545,205.882C160.015,193.507 151.816,182.228 144.342,170.488C140.991,165.225 136.816,162.962 130.923,162.389C121.447,161.467 112.009,160.173 102.55,159.056C89.237,157.485 75.923,155.934 61.008,154.186C63.406,157.488 64.773,159.483 66.252,161.392C75.311,173.074 85.235,184.192 93.232,196.558C101.125,208.769 109.955,215.787 124.946,210.572C126.091,210.174 127.439,210.385 128.685,210.249C141.553,208.848 154.421,207.433 168.545,205.882ZM488.259,62.221C488.259,54.175 488.259,46.491 488.258,38.808C488.256,27.787 486.011,25 473.848,22.094C477.269,29.07 468.738,38.526 480.796,43.077L480.796,62.221L488.259,62.221ZM397.969,198.405C445.434,197.419 492.105,196.45 538.844,195.479L538.844,161.081L397.969,161.081L397.969,198.405ZM777.198,204.543C776.627,206.871 776.3,207.584 776.3,208.298C776.249,235.656 776.1,263.015 776.433,290.369C776.465,292.754 779.21,296.164 781.558,297.284C792.407,302.461 803.545,307.034 814.611,311.746C821.341,314.614 828.132,317.338 835.686,320.453C835.686,314.903 835.567,310.688 835.706,306.483C836.647,277.913 837.577,249.342 838.697,220.78C838.868,216.396 837.45,214.479 833.04,213.906C825.343,212.906 817.713,211.397 810.055,210.101C799.237,208.271 788.42,206.441 777.198,204.543ZM51.297,163.869C49.959,165.352 49.053,166.138 48.408,167.101C36.723,184.58 24.991,202.031 13.506,219.641C12.121,221.764 11.554,224.78 11.544,227.386C11.41,256.474 11.575,285.565 11.355,314.651C11.315,319.892 13.078,321.587 18.177,321.767C39.708,322.528 61.227,323.632 82.754,324.544C84.637,324.624 86.543,324.22 88.721,324.012C89.705,296.67 90.041,269.879 91.883,243.188C92.846,229.237 90.297,217.609 81.432,206.475C70.746,193.053 61.519,178.47 51.297,163.869ZM539.058,205.259C491.473,207.422 444.805,209.545 398.243,211.663L398.243,329.307L407.249,329.307C407.737,324.774 408.186,320.624 408.625,316.57C418.921,315.063 422.536,317.981 424.989,329.393L449.841,329.393L449.841,285.913L503.558,285.913L503.558,327.321L539.058,327.321L539.058,205.259ZM556.291,205.051L556.291,292.025L760.982,292.025L760.982,205.051L556.291,205.051ZM423.169,137.635C423.356,138.062 423.544,138.488 423.729,138.916L543.159,138.916C524.502,123.153 507.037,108.397 489.246,93.364C467.09,108.208 445.129,122.921 423.169,137.635ZM600.288,316.533C611.361,314.926 616.646,319.101 615.925,329.524C613.133,369.792 610.284,410.059 606.937,450.284C606.261,458.407 603.967,466.565 601.284,474.315C597.913,484.048 588.765,485.798 582.451,477.448C576.651,469.775 572.032,460.955 568.266,452.059C560.676,434.129 554.055,415.79 546.934,397.658C546.052,395.413 544.561,393.406 542.505,389.807C539.199,405.591 536.785,419.885 533.127,433.852C528.888,450.029 523.882,466.033 518.455,481.852C517.168,485.604 512.417,491.264 510.068,490.895C505.583,490.189 499.74,486.672 497.927,482.729C493.698,473.534 490.281,463.585 488.754,453.601C484.699,427.101 481.792,400.425 478.503,373.811C478.073,370.347 478.075,366.831 477.885,363.494C490.756,356.681 494.715,357.881 496.961,371.917C499.285,386.449 499.048,401.374 500.796,416.025C502.22,427.968 504.914,439.757 507.046,451.618C508.315,451.606 509.583,451.593 510.848,451.58C513.847,439.212 517.453,426.951 519.692,414.446C522.818,396.945 524.67,379.222 527.619,361.686C528.489,356.513 529.512,348.897 536.073,349.183C540.564,349.379 546.735,353.76 548.869,357.946C557.813,375.499 565.882,393.531 573.531,411.696C577.498,421.118 579.826,431.221 583.114,440.943C583.889,443.229 585.554,445.214 586.809,447.337C587.701,447.178 588.595,447.02 589.488,446.861C593.073,403.604 596.658,360.349 600.288,316.533ZM456.348,442.849C456.278,455.665 456.146,468.228 464.617,479.385C467.563,483.264 467.528,489.224 462.631,492.92C457.546,496.755 453.004,494.182 449.261,490.494C440.166,481.53 438.005,469.469 435.99,457.693C434.478,448.856 434.223,439.76 434,430.766C433.919,427.445 434.47,422.837 436.608,421.017C440.041,418.092 445.096,415.515 449.341,415.701C451.803,415.806 455.356,421.335 456.045,424.883C457.166,430.674 456.348,436.842 456.348,442.849ZM648.47,439.008C648.095,455.293 648.28,468.054 656.476,479.613C658.373,482.286 657.249,489.264 654.933,492.278C651.176,497.161 644.955,495.076 641.933,490.929C637.316,484.593 632.564,477.549 630.822,470.111C627.875,457.532 626.713,444.45 625.798,431.507C625.131,422.111 629.83,416.26 636.846,415.161C642.855,414.223 646.838,416.671 647.555,422.708C648.322,429.154 648.303,435.692 648.47,439.008ZM625.547,386.749C625.443,379.877 628.937,375.565 634.851,375.276C639.229,375.062 644.955,380.869 644.887,385.454C644.82,389.856 638.85,396.487 634.678,395.808C629.879,395.03 625.61,392.725 625.547,386.749ZM433.801,385.93C433.815,379.082 437.487,374.463 443.175,375.729C447.03,376.588 451.169,381.606 452.742,385.7C454.246,389.619 446.1,396.984 442.141,395.847C437.28,394.451 432.736,391.95 433.801,385.93Z" style="fill:rgb(27,52,88);"/>
                </g>
            </g>
        </g>
    </g>
</svg>
